
        <svg xmlns="http://www.w3.org/2000/svg" xmlns:xlink="http://www.w3.org/1999/xlink" version="1.1" width="3187.5" height="1185.7328597090989" viewBox="0 0 3187.5 1185.7328597090989">
			
			<g transform="scale(9.375) translate(10, 10)">
				<defs id="SvgjsDefs3635"/><g id="SvgjsG3636" featureKey="JKiIdh-0" transform="matrix(1.3771638884076132,0,0,1.3771638884076132,-17.827386115159488,-16.616859456512408)" fill="#fff"><path xmlns="http://www.w3.org/2000/svg" d="M75.888,12.066H29.044c-5.332,0-9.67,4.338-9.67,9.67c0,0.562,0.455,1.017,1.018,1.017  c0.562,0,1.017-0.455,1.017-1.017c0-4.209,3.426-7.635,7.635-7.635h46.844c4.209,0,7.635,3.426,7.635,7.635v57.977  c0,4.209-3.426,7.635-7.635,7.635H29.044c-4.209,0-7.635-3.426-7.635-7.635c0-0.562-0.455-1.018-1.017-1.018  c-0.562,0-1.018,0.455-1.018,1.018c0,5.332,4.338,9.67,9.67,9.67h46.844c5.332,0,9.67-4.338,9.67-9.67V21.736  C85.558,16.404,81.22,12.066,75.888,12.066z M13.962,31.029H26.82c0.562,0,1.017-0.455,1.017-1.017c0-0.562-0.455-1.017-1.017-1.017  H13.962c-0.562,0-1.017,0.455-1.017,1.017C12.945,30.574,13.4,31.029,13.962,31.029z M13.962,44.837H26.82  c0.562,0,1.017-0.455,1.017-1.017c0-0.562-0.455-1.018-1.017-1.018H13.962c-0.562,0-1.017,0.455-1.017,1.018  C12.945,44.382,13.4,44.837,13.962,44.837z M13.962,58.647H26.82c0.562,0,1.017-0.455,1.017-1.017c0-0.562-0.455-1.018-1.017-1.018  H13.962c-0.562,0-1.017,0.455-1.017,1.018C12.945,58.192,13.4,58.647,13.962,58.647z M27.838,71.44c0-0.562-0.455-1.018-1.017-1.018  H13.962c-0.562,0-1.017,0.455-1.017,1.018c0,0.562,0.455,1.017,1.017,1.017H26.82C27.383,72.457,27.838,72.002,27.838,71.44z   M35.968,67.286c0.073,0.501,0.503,0.872,1.008,0.872h32.523c0.505,0,0.934-0.372,1.008-0.872c0.05-0.35,1.192-8.651-3.126-13.639  c-2.063-2.383-4.998-3.591-8.722-3.591c-0.269,0-0.497,0.133-0.683,0.315l-0.026-0.027c-0.018,0.018-1.799,1.699-4.71,1.699  c-2.911,0-4.694-1.681-4.708-1.695l-0.026,0.027c-0.187-0.184-0.416-0.319-0.687-0.319c-3.724,0-6.66,1.208-8.722,3.591  C34.776,58.636,35.918,66.937,35.968,67.286z M53.238,54.078c1.198,0,2.224-0.23,3.096-0.534l-3.096,6.414l-3.098-6.415  C51.013,53.848,52.04,54.078,53.238,54.078z M47.185,52.105l5.137,10.638c0.34,0.706,1.496,0.702,1.832,0l5.135-10.638  c2.802,0.125,5.002,1.087,6.548,2.87c2.965,3.42,2.892,9.007,2.739,11.149H37.898c-0.157-2.138-0.236-7.713,2.735-11.145  C42.177,53.194,44.38,52.23,47.185,52.105z M62.746,38.857c0-5.243-4.265-9.507-9.507-9.507s-9.509,4.265-9.509,9.507  c0,5.243,4.267,9.509,9.509,9.509S62.746,44.1,62.746,38.857z M45.764,38.857c0-4.12,3.353-7.472,7.474-7.472  c4.12,0,7.472,3.353,7.472,7.472c0,4.122-3.353,7.474-7.472,7.474C49.116,46.332,45.764,42.979,45.764,38.857z"/></g><g id="SvgjsG3637" featureKey="A7DQL5-0" transform="matrix(4.2767023692070385,0,0,4.2767023692070385,119.93584901581796,-12.377202688763877)" fill="#fff"><path d="M4.46 18.74 l0.4 0.42 c-1.1 1.1 -2.9 1.1 -4.02 0 c-1.1 -1.1 -1.1 -2.9 0 -4.02 c1.12 -1.1 2.92 -1.1 4.02 0 l-0.4 0.42 c-0.88 -0.88 -2.32 -0.88 -3.2 0 s-0.88 2.3 0 3.18 s2.32 0.88 3.2 0 z M8.1 14.9 c-1.24 0 -2.26 1 -2.26 2.26 c0 1.24 1.02 2.24 2.26 2.24 s2.26 -1 2.26 -2.24 c0 -1.26 -1.02 -2.26 -2.26 -2.26 z M8.1 14.32 c1.56 0 2.84 1.26 2.84 2.84 c0 1.56 -1.28 2.84 -2.84 2.84 c-1.58 0 -2.84 -1.28 -2.84 -2.84 c0 -1.58 1.26 -2.84 2.84 -2.84 z M17.42 17.16 l0 2.84 l-0.58 0 l0 -2.84 c0 -1.26 -1.02 -2.26 -2.26 -2.26 s-2.26 1 -2.26 2.26 l0 2.84 l-0.58 0 l0 -5.68 l0.58 0 l0 1.1 c0.52 -0.68 1.34 -1.1 2.26 -1.1 c1.56 0 2.84 1.26 2.84 2.84 z M21.04 19.4 l0 0.6 c-1.56 0 -2.84 -1.28 -2.84 -2.84 l0 -2.26 l-0.58 0 l0 -0.58 l0.58 0 l0 -8.62 l0.58 0 l0 8.62 l2.26 0 l0 0.58 l-2.26 0 l0 2.26 c0 1.24 1.02 2.24 2.26 2.24 z M26.139999999999993 14.32 l0.58 0 l0 5.68 l-0.58 0 l0 -1.12 c-0.52 0.68 -1.34 1.12 -2.26 1.12 c-1.58 0 -2.84 -1.28 -2.84 -2.84 c0 -1.58 1.26 -2.84 2.84 -2.84 c0.92 0 1.74 0.42 2.26 1.1 l0 -1.1 z M23.879999999999995 19.4 c1.24 0 2.26 -1 2.26 -2.24 c0 -1.26 -1.02 -2.26 -2.26 -2.26 s-2.26 1 -2.26 2.26 c0 1.24 1.02 2.24 2.26 2.24 z M31.979999999999997 18.74 l0.4 0.42 c-1.1 1.1 -2.9 1.1 -4.02 0 c-1.1 -1.1 -1.1 -2.9 0 -4.02 c1.12 -1.1 2.92 -1.1 4.02 0 l-0.4 0.42 c-0.88 -0.88 -2.32 -0.88 -3.2 0 s-0.88 2.3 0 3.18 s2.32 0.88 3.2 0 z M36.599999999999994 19.4 l0 0.6 c-1.56 0 -2.84 -1.28 -2.84 -2.84 l0 -2.26 l-0.58 0 l0 -0.58 l0.58 0 l0 -8.62 l0.58 0 l0 8.62 l2.26 0 l0 0.58 l-2.26 0 l0 2.26 c0 1.24 1.02 2.24 2.26 2.24 z M37.39999999999999 19.12 c0 -0.48 0.38 -0.88 0.86 -0.88 s0.88 0.4 0.88 0.88 s-0.4 0.88 -0.88 0.88 s-0.86 -0.4 -0.86 -0.88 z M42.99999999999999 22.96 l0 -8.64 l0.58 0 l0 8.64 l-0.58 0 z M42.53999999999999 24.06 c0.3 -0.3 0.46 -0.7 0.46 -1.1 l0.58 0 c0 0.54 -0.2 1.08 -0.62 1.5 c-0.84 0.84 -2.18 0.84 -3.02 0 l0.42 -0.4 c0.6 0.6 1.58 0.6 2.18 0 z M43.27999999999999 12 c0.34 0 0.6 0.26 0.6 0.58 s-0.26 0.58 -0.6 0.58 c-0.32 0 -0.58 -0.26 -0.58 -0.58 s0.26 -0.58 0.58 -0.58 z M45.239999999999995 20.06 l0 -0.58 c0.54 0 0.96 -0.42 0.96 -0.96 c0 -0.58 -0.44 -1 -0.92 -1.46 c-0.5 -0.48 -1 -0.96 -1 -1.64 c0 -0.66 0.52 -1.18 1.18 -1.18 l0 0.58 c-0.34 0 -0.6 0.26 -0.6 0.6 c0 0.44 0.4 0.82 0.82 1.22 c0.52 0.5 1.1 1.06 1.1 1.88 c0 0.86 -0.68 1.54 -1.54 1.54 z"/></g>
			</g>
		</svg>
	